<svg id="visual" viewBox="0 0 900 600" width="900" height="600" xmlns="http://www.w3.org/2000/svg" xmlns:xlink="http://www.w3.org/1999/xlink" version="1.1"><rect x="0" y="0" width="900" height="600" fill="#83c0f3"></rect><defs><linearGradient id="grad1_0" x1="33.3%" y1="100%" x2="100%" y2="0%"><stop offset="20%" stop-color="#83c0f3" stop-opacity="1"></stop><stop offset="80%" stop-color="#83c0f3" stop-opacity="1"></stop></linearGradient></defs><defs><linearGradient id="grad2_0" x1="0%" y1="100%" x2="66.7%" y2="0%"><stop offset="20%" stop-color="#83c0f3" stop-opacity="1"></stop><stop offset="80%" stop-color="#83c0f3" stop-opacity="1"></stop></linearGradient></defs><g transform="translate(900, 600)"><path d="M-486.7 0C-434.4 -46.4 -382.1 -92.8 -359.4 -148.9C-336.7 -205 -343.5 -270.7 -315.4 -315.4C-287.2 -360 -224.1 -383.5 -165.7 -400C-107.3 -416.6 -53.7 -426.3 0 -436L0 0Z" fill="#cee6fa"></path></g><g transform="translate(0, 0)"><path d="M436 0C447.1 61.5 458.2 122.9 445.3 184.5C432.4 246 395.5 307.6 344.2 344.2C292.8 380.8 227 392.3 167.2 403.7C107.5 415.2 53.7 426.6 0 438L0 0Z" fill="#cee6fa"></path></g></svg>